<?xml version="1.0" encoding="UTF-8"?>
<svg xmlns="http://www.w3.org/2000/svg" xmlns:xlink="http://www.w3.org/1999/xlink" width="79.13pt" height="77.03pt" viewBox="0 0 79.13 77.03" version="1.1">
<defs>
<clipPath id="clip1">
  <path d="M 73 36 L 79.128906 36 L 79.128906 38 L 73 38 Z M 73 36 "/>
</clipPath>
<clipPath id="clip2">
  <path d="M 73 39 L 79.128906 39 L 79.128906 45 L 73 45 Z M 73 39 "/>
</clipPath>
<clipPath id="clip3">
  <path d="M 38 74 L 41 74 L 41 77.03125 L 38 77.03125 Z M 38 74 "/>
</clipPath>
</defs>
<g id="surface1">
<path style=" stroke:none;fill-rule:nonzero;fill:rgb(38.798523%,37.298584%,66.699219%);fill-opacity:1;" d="M 50.417969 11.480469 L 51.027344 11.476563 L 67.328125 27.390625 L 67.390625 49.957031 L 51.179688 65.953125 L 28.195313 66.019531 L 11.894531 50.105469 L 11.894531 49.230469 L 50.417969 11.480469 "/>
<path style=" stroke:none;fill-rule:nonzero;fill:rgb(57.998657%,68.598938%,74.099731%);fill-opacity:1;" d="M 64.527344 34.695313 C 64.550781 34.363281 64.566406 34.023438 64.566406 33.683594 L 62.929688 33.128906 C 62.921875 33.023438 62.914063 32.917969 62.90625 32.8125 C 62.886719 32.605469 62.863281 32.402344 62.832031 32.199219 L 64.351563 31.367188 C 64.289063 31.03125 64.214844 30.699219 64.128906 30.375 L 62.367188 30.25 C 62.273438 29.960938 62.164063 29.679688 62.042969 29.402344 L 63.324219 28.1875 C 63.175781 27.878906 63.019531 27.582031 62.847656 27.289063 L 61.078125 27.621094 C 60.910156 27.375 60.738281 27.136719 60.554688 26.902344 L 61.492188 25.367188 C 61.277344 25.109375 61.046875 24.859375 60.808594 24.621094 L 59.148438 25.414063 C 58.929688 25.21875 58.703125 25.035156 58.46875 24.859375 L 58.984375 23.085938 C 58.714844 22.894531 58.433594 22.71875 58.148438 22.546875 L 56.71875 23.765625 C 56.457031 23.632813 56.191406 23.511719 55.921875 23.398438 L 55.949219 21.5 C 55.648438 21.390625 55.34375 21.289063 55.035156 21.199219 L 53.945313 22.777344 C 53.65625 22.714844 53.363281 22.664063 53.070313 22.621094 L 52.585938 20.738281 C 52.28125 20.707031 51.96875 20.691406 51.65625 20.683594 L 51.007813 22.519531 C 50.824219 22.527344 50.636719 22.539063 50.453125 22.554688 C 50.335938 22.566406 50.21875 22.578125 50.101563 22.589844 L 49.117188 20.855469 C 48.824219 20.902344 48.53125 20.960938 48.242188 21.027344 L 48.097656 23 C 47.796875 23.089844 47.503906 23.191406 47.214844 23.304688 L 45.78125 21.855469 C 45.523438 21.972656 45.269531 22.097656 45.019531 22.226563 L 45.402344 24.199219 C 45.128906 24.367188 44.859375 24.546875 44.597656 24.734375 L 42.816406 23.691406 C 42.605469 23.859375 42.40625 24.039063 42.207031 24.21875 L 43.105469 26.039063 C 42.871094 26.28125 42.652344 26.53125 42.441406 26.789063 L 40.433594 26.230469 C 40.285156 26.441406 40.144531 26.652344 40.003906 26.871094 L 41.355469 28.402344 C 41.1875 28.707031 41.03125 29.015625 40.890625 29.335938 L 38.8125 29.304688 C 38.726563 29.535156 38.648438 29.769531 38.578125 30.007813 L 40.277344 31.140625 C 40.191406 31.488281 40.121094 31.84375 40.070313 32.203125 L 38.074219 32.695313 C 38.054688 32.933594 38.042969 33.175781 38.039063 33.417969 L 39.960938 34.074219 C 39.96875 34.308594 39.980469 34.542969 40 34.78125 C 40.015625 34.917969 40.027344 35.050781 40.046875 35.1875 L 38.273438 36.15625 C 38.320313 36.390625 38.371094 36.625 38.429688 36.855469 L 40.425781 36.996094 C 40.539063 37.367188 40.667969 37.730469 40.816406 38.082031 L 39.394531 39.4375 C 39.5 39.65625 39.613281 39.867188 39.734375 40.078125 L 41.664063 39.714844 C 41.871094 40.046875 42.097656 40.371094 42.34375 40.679688 L 41.347656 42.308594 C 41.515625 42.492188 41.683594 42.671875 41.859375 42.84375 L 43.585938 42.023438 C 43.882813 42.292969 44.1875 42.550781 44.507813 42.789063 L 43.996094 44.566406 C 44.210938 44.703125 44.429688 44.839844 44.652344 44.964844 L 46.066406 43.765625 C 46.417969 43.949219 46.785156 44.117188 47.160156 44.265625 L 47.132813 46.0625 C 47.386719 46.144531 47.644531 46.21875 47.902344 46.289063 L 48.925781 44.808594 C 49.316406 44.894531 49.710938 44.960938 50.113281 45.003906 L 50.546875 46.699219 C 50.824219 46.714844 51.101563 46.722656 51.386719 46.71875 L 51.96875 45.070313 C 52.128906 45.0625 52.292969 45.050781 52.457031 45.039063 C 52.6875 45.019531 52.917969 44.992188 53.144531 44.957031 L 53.992188 46.449219 C 54.28125 46.390625 54.566406 46.324219 54.84375 46.246094 L 54.972656 44.542969 C 55.339844 44.425781 55.703125 44.292969 56.050781 44.140625 L 57.238281 45.34375 C 57.515625 45.210938 57.78125 45.066406 58.046875 44.914063 L 57.722656 43.257813 C 58.035156 43.054688 58.339844 42.84375 58.628906 42.613281 L 60.074219 43.464844 C 60.316406 43.253906 60.542969 43.039063 60.769531 42.816406 L 60.027344 41.3125 C 60.265625 41.050781 60.488281 40.777344 60.703125 40.496094 L 62.320313 40.945313 C 62.503906 40.675781 62.675781 40.402344 62.839844 40.121094 L 61.726563 38.859375 C 61.882813 38.558594 62.023438 38.25 62.152344 37.933594 L 63.839844 37.957031 C 63.949219 37.648438 64.046875 37.328125 64.132813 37.007813 L 62.714844 36.066406 C 62.78125 35.75 62.835938 35.429688 62.871094 35.105469 L 64.527344 34.695313 "/>
<path style="fill:none;stroke-width:3.657;stroke-linecap:butt;stroke-linejoin:miter;stroke:rgb(13.699341%,12.199402%,12.5%);stroke-opacity:1;stroke-miterlimit:4;" d="M 645.273438 423.346875 C 645.507813 426.667187 645.664063 430.065625 645.664063 433.464062 L 629.296875 439.010937 C 629.21875 440.065625 629.140625 441.120312 629.0625 442.175 C 628.867188 444.245312 628.632813 446.276562 628.320313 448.307812 L 643.515625 456.628125 C 642.890625 459.9875 642.148438 463.307812 641.289063 466.55 L 623.671875 467.8 C 622.734375 470.690625 621.640625 473.503125 620.429688 476.276562 L 633.242188 488.425 C 631.757813 491.510937 630.195313 494.479687 628.476563 497.409375 L 610.78125 494.089062 C 609.101563 496.55 607.382813 498.932812 605.546875 501.276562 L 614.921875 516.628125 C 612.773438 519.20625 610.46875 521.70625 608.085938 524.089062 L 591.484375 516.159375 C 589.296875 518.1125 587.03125 519.948437 584.6875 521.70625 L 589.84375 539.440625 C 587.148438 541.354687 584.335938 543.1125 581.484375 544.83125 L 567.1875 532.64375 C 564.570313 533.971875 561.914063 535.182812 559.21875 536.315625 L 559.492188 555.3 C 556.484375 556.39375 553.4375 557.409375 550.351563 558.307812 L 539.453125 542.526562 C 536.5625 543.151562 533.632813 543.659375 530.703125 544.089062 L 525.859375 562.917187 C 522.8125 563.229687 519.6875 563.385937 516.5625 563.464062 L 510.078125 545.104687 C 508.242188 545.026562 506.367188 544.909375 504.53125 544.753125 C 503.359375 544.635937 502.1875 544.51875 501.015625 544.401562 L 491.171875 561.745312 C 488.242188 561.276562 485.3125 560.690625 482.421875 560.026562 L 480.976563 540.3 C 477.96875 539.401562 475.039063 538.385937 472.148438 537.253125 L 457.8125 551.745312 C 455.234375 550.573437 452.695313 549.323437 450.195313 548.034375 L 454.023438 528.307812 C 451.289063 526.628125 448.59375 524.83125 445.976563 522.95625 L 428.164063 533.385937 C 426.054688 531.70625 424.0625 529.909375 422.070313 528.1125 L 431.054688 509.909375 C 428.710938 507.4875 426.523438 504.9875 424.414063 502.409375 L 404.335938 507.995312 C 402.851563 505.885937 401.445313 503.776562 400.039063 501.589062 L 413.554688 486.276562 C 411.875 483.229687 410.3125 480.14375 408.90625 476.940625 L 388.125 477.253125 C 387.265625 474.948437 386.484375 472.604687 385.78125 470.221875 L 402.773438 458.89375 C 401.914063 455.417187 401.210938 451.8625 400.703125 448.26875 L 380.742188 443.346875 C 380.546875 440.964062 380.429688 438.542187 380.390625 436.120312 L 399.609375 429.557812 C 399.6875 427.214062 399.804688 424.870312 400 422.4875 C 400.15625 421.120312 400.273438 419.792187 400.46875 418.425 L 382.734375 408.7375 C 383.203125 406.39375 383.710938 404.05 384.296875 401.745312 L 404.257813 400.339062 C 405.390625 396.628125 406.679688 392.995312 408.164063 389.479687 L 393.945313 375.925 C 395 373.7375 396.132813 371.628125 397.34375 369.51875 L 416.640625 373.151562 C 418.710938 369.83125 420.976563 366.589062 423.4375 363.503125 L 413.476563 347.214062 C 415.15625 345.378125 416.835938 343.58125 418.59375 341.8625 L 435.859375 350.065625 C 438.828125 347.370312 441.875 344.792187 445.078125 342.409375 L 439.960938 324.635937 C 442.109375 323.26875 444.296875 321.901562 446.523438 320.651562 L 460.664063 332.64375 C 464.179688 330.807812 467.851563 329.128125 471.601563 327.64375 L 471.328125 309.675 C 473.867188 308.854687 476.445313 308.1125 479.023438 307.409375 L 489.257813 322.214062 C 493.164063 321.354687 497.109375 320.690625 501.132813 320.260937 L 505.46875 303.307812 C 508.242188 303.151562 511.015625 303.073437 513.867188 303.1125 L 519.6875 319.596875 C 521.289063 319.675 522.929688 319.792187 524.570313 319.909375 C 526.875 320.104687 529.179688 320.378125 531.445313 320.729687 L 539.921875 305.807812 C 542.8125 306.39375 545.664063 307.057812 548.4375 307.839062 L 549.726563 324.870312 C 553.398438 326.042187 557.03125 327.370312 560.507813 328.89375 L 572.382813 316.8625 C 575.15625 318.190625 577.8125 319.635937 580.46875 321.159375 L 577.226563 337.721875 C 580.351563 339.753125 583.398438 341.8625 586.289063 344.167187 L 600.742188 335.651562 C 603.164063 337.760937 605.429688 339.909375 607.695313 342.135937 L 600.273438 357.175 C 602.65625 359.792187 604.882813 362.526562 607.03125 365.339062 L 623.203125 360.846875 C 625.039063 363.542187 626.757813 366.276562 628.398438 369.089062 L 617.265625 381.70625 C 618.828125 384.714062 620.234375 387.8 621.523438 390.964062 L 638.398438 390.729687 C 639.492188 393.815625 640.46875 397.01875 641.328125 400.221875 L 627.148438 409.635937 C 627.8125 412.8 628.359375 416.003125 628.710938 419.245312 Z M 645.273438 423.346875 " transform="matrix(0.1,0,0,-0.1,0,77.03)"/>
<path style=" stroke:none;fill-rule:nonzero;fill:rgb(100%,100%,100%);fill-opacity:1;" d="M 52.019531 41.769531 C 56.558594 41.378906 59.917969 37.449219 59.523438 32.992188 C 59.125 28.535156 55.121094 25.238281 50.582031 25.628906 C 46.039063 26.015625 42.679688 29.945313 43.078125 34.40625 C 43.476563 38.863281 47.480469 42.160156 52.019531 41.769531 "/>
<path style="fill:none;stroke-width:2.438;stroke-linecap:butt;stroke-linejoin:miter;stroke:rgb(100%,100%,100%);stroke-opacity:1;stroke-miterlimit:4;" d="M 520.195313 352.604687 C 565.585938 356.510937 599.179688 395.807812 595.234375 440.378125 C 591.25 484.948437 551.210938 517.917187 505.820313 514.010937 C 460.390625 510.14375 426.796875 470.846875 430.78125 426.2375 C 434.765625 381.667187 474.804688 348.698437 520.195313 352.604687 Z M 520.195313 352.604687 " transform="matrix(0.1,0,0,-0.1,0,77.03)"/>
<path style=" stroke:none;fill-rule:nonzero;fill:rgb(13.699341%,12.199402%,12.5%);fill-opacity:1;" d="M 1.9375 50.914063 L 5.273438 49.910156 C 5.667969 49.792969 5.96875 49.625 6.1875 49.402344 C 6.511719 49.070313 6.59375 48.648438 6.4375 48.140625 C 6.246094 47.53125 5.90625 47.183594 5.414063 47.089844 C 5.144531 47.042969 4.820313 47.078125 4.429688 47.195313 L 1.089844 48.195313 L 0.863281 47.464844 L 3.894531 46.554688 C 4.5625 46.355469 5.097656 46.289063 5.511719 46.359375 C 6.261719 46.484375 6.78125 46.996094 7.058594 47.890625 C 7.335938 48.789063 7.199219 49.492188 6.648438 50.007813 C 6.34375 50.292969 5.863281 50.53125 5.195313 50.730469 L 2.164063 51.644531 L 1.9375 50.914063 "/>
<path style=" stroke:none;fill-rule:nonzero;fill:rgb(13.699341%,12.199402%,12.5%);fill-opacity:1;" d="M 0.390625 44.78125 L 0.3125 43.898438 L 4.621094 40.714844 L 0.0625 41.105469 L 0 40.398438 L 5.628906 39.914063 L 5.703125 40.75 L 1.398438 43.972656 L 5.957031 43.582031 L 6.019531 44.296875 L 0.390625 44.78125 "/>
<path style=" stroke:none;fill-rule:nonzero;fill:rgb(13.699341%,12.199402%,12.5%);fill-opacity:1;" d="M 0.0078125 37.980469 L 0.03125 37.222656 L 5.679688 37.414063 L 5.652344 38.171875 L 0.0078125 37.980469 "/>
<path style=" stroke:none;fill-rule:nonzero;fill:rgb(13.699341%,12.199402%,12.5%);fill-opacity:1;" d="M 0.21875 34.605469 L 5.207031 33.683594 L 0.664063 31.46875 L 0.785156 30.636719 L 6.09375 33.410156 L 5.980469 34.199219 L 0.0976563 35.425781 L 0.21875 34.605469 "/>
<path style=" stroke:none;fill-rule:nonzero;fill:rgb(13.699341%,12.199402%,12.5%);fill-opacity:1;" d="M 1.363281 28.558594 L 2.632813 24.714844 L 3.292969 24.925781 L 2.25 28.074219 L 3.882813 28.59375 L 4.84375 25.683594 L 5.46875 25.882813 L 4.503906 28.792969 L 6.324219 29.375 L 7.386719 26.171875 L 8.023438 26.375 L 6.734375 30.273438 L 1.363281 28.558594 "/>
<path style=" stroke:none;fill-rule:evenodd;fill:rgb(13.699341%,12.199402%,12.5%);fill-opacity:1;" d="M 7.121094 21.425781 C 7.289063 21.117188 7.359375 20.835938 7.328125 20.589844 C 7.300781 20.34375 7.121094 20.132813 6.792969 19.960938 C 6.4375 19.773438 6.125 19.773438 5.859375 19.960938 C 5.71875 20.0625 5.585938 20.222656 5.460938 20.449219 L 4.585938 22.070313 L 6.289063 22.960938 Z M 3.644531 22.429688 L 4.875 20.164063 C 5.074219 19.792969 5.296875 19.511719 5.539063 19.328125 C 6 18.980469 6.519531 18.953125 7.09375 19.253906 C 7.390625 19.410156 7.601563 19.597656 7.726563 19.820313 C 7.851563 20.039063 7.914063 20.285156 7.910156 20.566406 C 8.09375 20.414063 8.273438 20.328125 8.457031 20.296875 C 8.636719 20.269531 8.875 20.324219 9.171875 20.460938 L 9.851563 20.789063 C 10.046875 20.878906 10.195313 20.9375 10.300781 20.964844 C 10.480469 21.003906 10.621094 20.988281 10.722656 20.910156 L 10.835938 20.96875 L 10.394531 21.78125 C 10.339844 21.78125 10.277344 21.769531 10.199219 21.746094 C 10.125 21.726563 9.988281 21.667969 9.789063 21.574219 L 8.933594 21.179688 C 8.601563 21.027344 8.316406 21.03125 8.085938 21.195313 C 7.957031 21.289063 7.820313 21.472656 7.671875 21.746094 L 6.855469 23.253906 L 8.992188 24.371094 L 8.632813 25.035156 L 3.644531 22.429688 "/>
<path style=" stroke:none;fill-rule:nonzero;fill:rgb(13.699341%,12.199402%,12.5%);fill-opacity:1;" d="M 10.441406 18.449219 C 10.707031 18.625 10.960938 18.71875 11.203125 18.734375 C 11.652344 18.757813 12.070313 18.515625 12.457031 18.011719 C 12.628906 17.789063 12.753906 17.558594 12.832031 17.324219 C 12.980469 16.875 12.890625 16.527344 12.5625 16.285156 C 12.316406 16.101563 12.082031 16.050781 11.863281 16.121094 C 11.644531 16.199219 11.371094 16.371094 11.042969 16.640625 L 10.445313 17.140625 C 10.054688 17.464844 9.742188 17.667969 9.511719 17.75 C 9.105469 17.894531 8.714844 17.828125 8.339844 17.550781 C 7.9375 17.25 7.707031 16.867188 7.660156 16.398438 C 7.613281 15.929688 7.78125 15.445313 8.167969 14.941406 C 8.523438 14.476563 8.941406 14.167969 9.417969 14.011719 C 9.894531 13.855469 10.386719 13.960938 10.886719 14.332031 L 10.453125 14.894531 C 10.191406 14.75 9.957031 14.675781 9.75 14.679688 C 9.375 14.6875 9.019531 14.910156 8.679688 15.347656 C 8.410156 15.703125 8.292969 16.011719 8.324219 16.277344 C 8.355469 16.546875 8.472656 16.753906 8.675781 16.902344 C 8.894531 17.066406 9.125 17.09375 9.367188 16.988281 C 9.523438 16.917969 9.8125 16.710938 10.230469 16.367188 L 10.851563 15.851563 C 11.152344 15.605469 11.421875 15.445313 11.667969 15.371094 C 12.097656 15.246094 12.511719 15.332031 12.910156 15.628906 C 13.410156 15.996094 13.632813 16.441406 13.574219 16.957031 C 13.515625 17.472656 13.304688 17.964844 12.941406 18.4375 C 12.519531 18.988281 12.042969 19.3125 11.519531 19.414063 C 10.992188 19.511719 10.492188 19.382813 10.007813 19.015625 L 10.441406 18.449219 "/>
<path style=" stroke:none;fill-rule:nonzero;fill:rgb(13.699341%,12.199402%,12.5%);fill-opacity:1;" d="M 11.261719 11.691406 L 11.796875 11.144531 L 15.863281 14.996094 L 15.324219 15.542969 L 11.261719 11.691406 "/>
<path style=" stroke:none;fill-rule:evenodd;fill:rgb(13.699341%,12.199402%,12.5%);fill-opacity:1;" d="M 18.355469 12.0625 C 18.5625 11.910156 18.714844 11.761719 18.816406 11.621094 C 18.992188 11.367188 19.074219 11.074219 19.050781 10.738281 C 19.035156 10.472656 18.949219 10.175781 18.785156 9.859375 C 18.6875 9.667969 18.585938 9.503906 18.476563 9.359375 C 18.054688 8.8125 17.613281 8.46875 17.160156 8.328125 C 16.707031 8.191406 16.230469 8.300781 15.738281 8.667969 L 14.65625 9.46875 L 17.265625 12.871094 Z M 13.644531 9.410156 L 15.472656 8.054688 C 16.09375 7.597656 16.738281 7.457031 17.410156 7.636719 C 18.015625 7.800781 18.550781 8.1875 19.019531 8.796875 C 19.382813 9.265625 19.617188 9.757813 19.730469 10.273438 C 19.925781 11.179688 19.640625 11.917969 18.863281 12.488281 L 17.042969 13.835938 L 13.644531 9.410156 "/>
<path style=" stroke:none;fill-rule:evenodd;fill:rgb(13.699341%,12.199402%,12.5%);fill-opacity:1;" d="M 23.398438 6.980469 L 21.46875 5.210938 L 21.835938 7.792969 Z M 20.722656 4.667969 L 21.488281 4.269531 L 25.949219 8.222656 L 25.210938 8.609375 L 23.90625 7.40625 L 21.9375 8.433594 L 22.191406 10.183594 L 21.496094 10.542969 L 20.722656 4.667969 "/>
<path style=" stroke:none;fill-rule:evenodd;fill:rgb(13.699341%,12.199402%,12.5%);fill-opacity:1;" d="M 28.835938 6.570313 C 29.082031 6.492188 29.277344 6.402344 29.417969 6.300781 C 29.671875 6.117188 29.84375 5.863281 29.933594 5.542969 C 30.007813 5.28125 30.023438 4.976563 29.976563 4.625 C 29.945313 4.414063 29.902344 4.222656 29.847656 4.054688 C 29.632813 3.398438 29.332031 2.933594 28.945313 2.660156 C 28.5625 2.382813 28.078125 2.335938 27.488281 2.523438 L 26.199219 2.933594 L 27.539063 6.984375 Z M 25.265625 2.554688 L 27.441406 1.859375 C 28.175781 1.625 28.835938 1.699219 29.414063 2.085938 C 29.929688 2.433594 30.308594 2.96875 30.546875 3.695313 C 30.734375 4.253906 30.792969 4.796875 30.730469 5.316406 C 30.617188 6.234375 30.097656 6.84375 29.175781 7.136719 L 27.007813 7.828125 L 25.265625 2.554688 "/>
<path style=" stroke:none;fill-rule:evenodd;fill:rgb(13.699341%,12.199402%,12.5%);fill-opacity:1;" d="M 35.046875 0.203125 L 37.582031 0.03125 C 38.082031 -0.00390625 38.496094 0.105469 38.824219 0.363281 C 39.152344 0.621094 39.332031 0.996094 39.367188 1.5 C 39.398438 1.929688 39.289063 2.316406 39.035156 2.65625 C 38.785156 2.996094 38.378906 3.183594 37.808594 3.222656 L 36.035156 3.34375 L 36.203125 5.683594 L 35.441406 5.734375 Z M 38.078125 0.757813 C 37.902344 0.695313 37.667969 0.671875 37.375 0.691406 L 35.855469 0.792969 L 35.992188 2.710938 L 37.511719 2.605469 C 37.851563 2.582031 38.125 2.492188 38.328125 2.335938 C 38.53125 2.175781 38.621094 1.917969 38.597656 1.554688 C 38.566406 1.148438 38.394531 0.882813 38.078125 0.757813 "/>
<path style=" stroke:none;fill-rule:nonzero;fill:rgb(13.699341%,12.199402%,12.5%);fill-opacity:1;" d="M 41.769531 0.00390625 L 45.859375 0.496094 L 45.773438 1.171875 L 42.425781 0.769531 L 42.21875 2.4375 L 45.3125 2.8125 L 45.234375 3.449219 L 42.136719 3.074219 L 41.90625 4.941406 L 45.308594 5.351563 L 45.226563 6.007813 L 41.082031 5.507813 L 41.769531 0.00390625 "/>
<path style=" stroke:none;fill-rule:evenodd;fill:rgb(13.699341%,12.199402%,12.5%);fill-opacity:1;" d="M 49.941406 3.988281 C 50.289063 4.078125 50.582031 4.082031 50.820313 4 C 51.058594 3.914063 51.226563 3.695313 51.324219 3.34375 C 51.429688 2.960938 51.359375 2.664063 51.113281 2.449219 C 50.984375 2.335938 50.789063 2.246094 50.539063 2.179688 L 48.734375 1.707031 L 48.234375 3.535156 Z M 48.164063 0.890625 L 50.691406 1.554688 C 51.105469 1.664063 51.433594 1.8125 51.671875 2.003906 C 52.121094 2.367188 52.261719 2.855469 52.09375 3.46875 C 52.007813 3.789063 51.867188 4.035156 51.675781 4.203125 C 51.484375 4.371094 51.253906 4.488281 50.976563 4.546875 C 51.164063 4.6875 51.292969 4.84375 51.363281 5.007813 C 51.433594 5.175781 51.433594 5.417969 51.359375 5.730469 L 51.191406 6.457031 C 51.144531 6.664063 51.117188 6.820313 51.117188 6.925781 C 51.117188 7.109375 51.164063 7.238281 51.265625 7.316406 L 51.234375 7.4375 L 50.328125 7.199219 C 50.316406 7.144531 50.3125 7.082031 50.316406 7.003906 C 50.324219 6.925781 50.347656 6.78125 50.394531 6.570313 L 50.59375 5.667969 C 50.671875 5.3125 50.605469 5.042969 50.390625 4.859375 C 50.265625 4.753906 50.054688 4.664063 49.753906 4.585938 L 48.070313 4.140625 L 47.441406 6.4375 L 46.703125 6.246094 L 48.164063 0.890625 "/>
<path style=" stroke:none;fill-rule:nonzero;fill:rgb(13.699341%,12.199402%,12.5%);fill-opacity:1;" d="M 55.660156 3.316406 L 54.132813 6.398438 C 53.953125 6.757813 53.871094 7.09375 53.890625 7.398438 C 53.914063 7.859375 54.171875 8.207031 54.65625 8.4375 C 55.238281 8.71875 55.734375 8.710938 56.136719 8.421875 C 56.355469 8.261719 56.554688 8.003906 56.734375 7.644531 L 58.265625 4.5625 L 58.960938 4.898438 L 57.570313 7.695313 C 57.265625 8.308594 56.949219 8.742188 56.617188 8.988281 C 56.007813 9.445313 55.277344 9.464844 54.417969 9.054688 C 53.5625 8.644531 53.128906 8.066406 53.121094 7.316406 C 53.117188 6.90625 53.269531 6.394531 53.574219 5.78125 L 54.964844 2.984375 L 55.660156 3.316406 "/>
<path style=" stroke:none;fill-rule:evenodd;fill:rgb(13.699341%,12.199402%,12.5%);fill-opacity:1;" d="M 61.53125 10.554688 L 62.304688 8.078125 L 60.101563 9.535156 Z M 62.472656 7.183594 L 63.171875 7.679688 L 61.511719 13.351563 L 60.835938 12.867188 L 61.363281 11.191406 L 59.558594 9.902344 L 58.070313 10.894531 L 57.433594 10.441406 L 62.472656 7.183594 "/>
<path style=" stroke:none;fill-rule:nonzero;fill:rgb(13.699341%,12.199402%,12.5%);fill-opacity:1;" d="M 66.386719 10.234375 L 67.015625 10.871094 L 65.703125 16.007813 L 68.996094 12.886719 L 69.5 13.402344 L 65.4375 17.253906 L 64.84375 16.648438 L 66.117188 11.484375 L 62.832031 14.601563 L 62.324219 14.085938 L 66.386719 10.234375 "/>
<path style=" stroke:none;fill-rule:evenodd;fill:rgb(13.699341%,12.199402%,12.5%);fill-opacity:1;" d="M 69.996094 19.507813 L 71.546875 17.410156 L 68.980469 18.082031 Z M 72.007813 16.617188 L 72.503906 17.3125 L 69.050781 22.140625 L 68.570313 21.46875 L 69.628906 20.054688 L 68.34375 18.257813 L 66.609375 18.71875 L 66.160156 18.089844 L 72.007813 16.617188 "/>
<path style=" stroke:none;fill-rule:nonzero;fill:rgb(13.699341%,12.199402%,12.5%);fill-opacity:1;" d="M 76.058594 23.789063 L 72.800781 25.015625 C 72.417969 25.160156 72.125 25.351563 71.925781 25.589844 C 71.625 25.941406 71.574219 26.367188 71.765625 26.863281 C 72 27.457031 72.363281 27.78125 72.859375 27.839844 C 73.132813 27.871094 73.457031 27.8125 73.835938 27.671875 L 77.097656 26.441406 L 77.375 27.152344 L 74.414063 28.269531 C 73.765625 28.515625 73.230469 28.617188 72.816406 28.578125 C 72.054688 28.5 71.507813 28.027344 71.164063 27.152344 C 70.824219 26.28125 70.90625 25.566406 71.421875 25.015625 C 71.707031 24.710938 72.171875 24.4375 72.820313 24.191406 L 75.78125 23.078125 L 76.058594 23.789063 "/>
<path style=" stroke:none;fill-rule:nonzero;fill:rgb(13.699341%,12.199402%,12.5%);fill-opacity:1;" d="M 78.027344 29.605469 L 78.199219 30.476563 L 74.25 34.082031 L 78.742188 33.222656 L 78.882813 33.925781 L 73.335938 34.980469 L 73.171875 34.15625 L 77.109375 30.511719 L 72.621094 31.367188 L 72.480469 30.660156 L 78.027344 29.605469 "/>
<g clip-path="url(#clip1)" clip-rule="nonzero">
<path style=" stroke:none;fill-rule:nonzero;fill:rgb(13.699341%,12.199402%,12.5%);fill-opacity:1;" d="M 79.027344 36.34375 L 79.078125 37.097656 L 73.445313 37.484375 L 73.390625 36.730469 L 79.027344 36.34375 "/>
</g>
<g clip-path="url(#clip2)" clip-rule="nonzero">
<path style=" stroke:none;fill-rule:evenodd;fill:rgb(13.699341%,12.199402%,12.5%);fill-opacity:1;" d="M 77.980469 44.058594 C 77.449219 44.382813 76.796875 44.511719 76.019531 44.445313 C 75.179688 44.371094 74.5 44.101563 73.980469 43.636719 C 73.371094 43.089844 73.105469 42.359375 73.1875 41.449219 C 73.265625 40.597656 73.609375 39.957031 74.222656 39.519531 C 74.816406 39.132813 75.53125 38.976563 76.375 39.046875 C 77.136719 39.113281 77.769531 39.355469 78.277344 39.773438 C 78.929688 40.308594 79.214844 41.042969 79.132813 41.976563 C 79.042969 42.949219 78.660156 43.644531 77.980469 44.058594 Z M 74.453125 43.089844 C 74.910156 43.425781 75.453125 43.621094 76.078125 43.675781 C 76.738281 43.734375 77.285156 43.609375 77.71875 43.300781 C 78.152344 42.996094 78.398438 42.550781 78.449219 41.960938 C 78.5 41.390625 78.34375 40.90625 77.972656 40.511719 C 77.605469 40.117188 77.035156 39.886719 76.253906 39.816406 C 75.632813 39.765625 75.09375 39.875 74.636719 40.144531 C 74.179688 40.417969 73.921875 40.902344 73.859375 41.597656 C 73.800781 42.257813 74 42.753906 74.453125 43.089844 "/>
</g>
<path style=" stroke:none;fill-rule:nonzero;fill:rgb(13.699341%,12.199402%,12.5%);fill-opacity:1;" d="M 78.308594 46.898438 L 78.074219 47.753906 L 72.914063 49.296875 L 77.335938 50.460938 L 77.148438 51.148438 L 71.691406 49.714844 L 71.914063 48.898438 L 77.078125 47.316406 L 72.660156 46.15625 L 72.851563 45.460938 L 78.308594 46.898438 "/>
<path style=" stroke:none;fill-rule:nonzero;fill:rgb(13.699341%,12.199402%,12.5%);fill-opacity:1;" d="M 8.789063 57.042969 L 9.980469 58.84375 L 9.671875 59.039063 L 8.699219 57.5625 L 7.933594 58.050781 L 8.835938 59.414063 L 8.542969 59.601563 L 7.640625 58.238281 L 6.789063 58.78125 L 7.78125 60.28125 L 7.480469 60.472656 L 6.273438 58.644531 L 8.789063 57.042969 "/>
<path style=" stroke:none;fill-rule:evenodd;fill:rgb(13.699341%,12.199402%,12.5%);fill-opacity:1;" d="M 8.886719 61.761719 C 8.96875 61.871094 9.046875 61.949219 9.125 62.003906 C 9.261719 62.09375 9.417969 62.136719 9.601563 62.125 C 9.746094 62.117188 9.90625 62.070313 10.078125 61.988281 C 10.179688 61.9375 10.269531 61.882813 10.347656 61.824219 C 10.644531 61.605469 10.832031 61.378906 10.90625 61.140625 C 10.980469 60.902344 10.917969 60.65625 10.722656 60.398438 L 10.289063 59.832031 L 8.449219 61.195313 Z M 10.320313 59.304688 L 11.050781 60.257813 C 11.300781 60.582031 11.378906 60.917969 11.28125 61.269531 C 11.191406 61.585938 10.980469 61.867188 10.652344 62.109375 C 10.398438 62.296875 10.132813 62.421875 9.855469 62.480469 C 9.363281 62.582031 8.964844 62.433594 8.652344 62.027344 L 7.925781 61.078125 L 10.320313 59.304688 "/>
<path style=" stroke:none;fill-rule:nonzero;fill:rgb(13.699341%,12.199402%,12.5%);fill-opacity:1;" d="M 12.441406 61.90625 L 11.0625 63.125 C 10.902344 63.265625 10.792969 63.414063 10.742188 63.570313 C 10.660156 63.800781 10.714844 64.023438 10.90625 64.230469 C 11.140625 64.484375 11.382813 64.574219 11.640625 64.511719 C 11.78125 64.476563 11.929688 64.386719 12.09375 64.246094 L 13.46875 63.027344 L 13.746094 63.328125 L 12.492188 64.433594 C 12.21875 64.675781 11.976563 64.828125 11.761719 64.886719 C 11.371094 64.992188 11.003906 64.859375 10.664063 64.488281 C 10.328125 64.117188 10.230469 63.75 10.378906 63.378906 C 10.460938 63.175781 10.640625 62.953125 10.914063 62.710938 L 12.164063 61.605469 L 12.441406 61.90625 "/>
<path style=" stroke:none;fill-rule:nonzero;fill:rgb(13.699341%,12.199402%,12.5%);fill-opacity:1;" d="M 15.570313 65.335938 C 15.589844 65.621094 15.519531 65.859375 15.359375 66.058594 L 15.070313 65.792969 C 15.171875 65.625 15.210938 65.453125 15.1875 65.285156 C 15.167969 65.113281 15.070313 64.945313 14.890625 64.785156 C 14.675781 64.585938 14.429688 64.5 14.152344 64.527344 C 13.878906 64.554688 13.597656 64.722656 13.304688 65.03125 C 13.066406 65.285156 12.929688 65.542969 12.898438 65.808594 C 12.871094 66.078125 12.976563 66.320313 13.214844 66.539063 C 13.433594 66.738281 13.679688 66.808594 13.949219 66.746094 C 14.09375 66.714844 14.246094 66.644531 14.414063 66.527344 L 14.703125 66.792969 C 14.460938 66.996094 14.195313 67.109375 13.902344 67.128906 C 13.554688 67.15625 13.230469 67.03125 12.933594 66.761719 C 12.679688 66.527344 12.539063 66.253906 12.507813 65.945313 C 12.46875 65.535156 12.652344 65.121094 13.046875 64.703125 C 13.351563 64.386719 13.683594 64.203125 14.046875 64.15625 C 14.445313 64.105469 14.804688 64.230469 15.128906 64.527344 C 15.40625 64.78125 15.554688 65.050781 15.570313 65.335938 "/>
<path style=" stroke:none;fill-rule:evenodd;fill:rgb(13.699341%,12.199402%,12.5%);fill-opacity:1;" d="M 16.460938 68.042969 L 16.941406 66.75 L 15.730469 67.460938 Z M 17.054688 66.28125 L 17.410156 66.5625 L 16.371094 69.523438 L 16.023438 69.25 L 16.351563 68.375 L 15.429688 67.644531 L 14.613281 68.128906 L 14.289063 67.871094 L 17.054688 66.28125 "/>
<path style=" stroke:none;fill-rule:nonzero;fill:rgb(13.699341%,12.199402%,12.5%);fill-opacity:1;" d="M 20.109375 68.484375 L 19.90625 68.773438 L 19.078125 68.203125 L 17.558594 70.328125 L 17.222656 70.09375 L 18.738281 67.96875 L 17.910156 67.402344 L 18.113281 67.113281 L 20.109375 68.484375 "/>
<path style=" stroke:none;fill-rule:nonzero;fill:rgb(13.699341%,12.199402%,12.5%);fill-opacity:1;" d="M 21.40625 69.269531 L 21.769531 69.460938 L 21.1875 70.535156 L 22.566406 71.253906 L 23.148438 70.179688 L 23.511719 70.367188 L 22.101563 72.96875 L 21.738281 72.78125 L 22.398438 71.5625 L 21.019531 70.84375 L 20.359375 72.0625 L 19.996094 71.871094 L 21.40625 69.269531 "/>
<path style=" stroke:none;fill-rule:nonzero;fill:rgb(13.699341%,12.199402%,12.5%);fill-opacity:1;" d="M 24.476563 70.824219 L 23.722656 72.488281 C 23.636719 72.683594 23.597656 72.859375 23.613281 73.023438 C 23.636719 73.265625 23.78125 73.445313 24.042969 73.5625 C 24.355469 73.699219 24.617188 73.6875 24.828125 73.523438 C 24.941406 73.4375 25.039063 73.296875 25.128906 73.101563 L 25.882813 71.4375 L 26.261719 71.601563 L 25.574219 73.113281 C 25.425781 73.445313 25.265625 73.679688 25.09375 73.820313 C 24.777344 74.070313 24.390625 74.09375 23.925781 73.894531 C 23.464844 73.691406 23.222656 73.390625 23.207031 72.992188 C 23.195313 72.777344 23.265625 72.5 23.414063 72.171875 L 24.101563 70.660156 L 24.476563 70.824219 "/>
<path style=" stroke:none;fill-rule:nonzero;fill:rgb(13.699341%,12.199402%,12.5%);fill-opacity:1;" d="M 26.996094 71.84375 L 27.382813 71.988281 L 26.304688 74.738281 L 25.921875 74.59375 L 26.996094 71.84375 "/>
<path style=" stroke:none;fill-rule:nonzero;fill:rgb(13.699341%,12.199402%,12.5%);fill-opacity:1;" d="M 29.984375 73.039063 C 30.128906 73.289063 30.171875 73.535156 30.117188 73.78125 L 29.738281 73.667969 C 29.753906 73.472656 29.714844 73.304688 29.617188 73.160156 C 29.523438 73.015625 29.359375 72.90625 29.128906 72.835938 C 28.84375 72.753906 28.585938 72.78125 28.351563 72.925781 C 28.117188 73.066406 27.9375 73.339844 27.8125 73.742188 C 27.710938 74.074219 27.703125 74.363281 27.796875 74.617188 C 27.890625 74.867188 28.09375 75.042969 28.402344 75.132813 C 28.691406 75.222656 28.941406 75.179688 29.160156 75.007813 C 29.273438 74.917969 29.378906 74.785156 29.476563 74.613281 L 29.855469 74.726563 C 29.730469 75.011719 29.539063 75.226563 29.285156 75.371094 C 28.984375 75.542969 28.640625 75.574219 28.253906 75.457031 C 27.917969 75.355469 27.667969 75.171875 27.503906 74.90625 C 27.289063 74.554688 27.265625 74.105469 27.433594 73.558594 C 27.566406 73.144531 27.78125 72.835938 28.089844 72.636719 C 28.421875 72.421875 28.800781 72.378906 29.226563 72.503906 C 29.589844 72.613281 29.84375 72.792969 29.984375 73.039063 "/>
<path style=" stroke:none;fill-rule:nonzero;fill:rgb(13.699341%,12.199402%,12.5%);fill-opacity:1;" d="M 32.363281 73.355469 L 32.722656 75.976563 L 34.046875 73.675781 L 34.492188 73.761719 L 32.847656 76.445313 L 32.421875 76.367188 L 31.921875 73.269531 L 32.363281 73.355469 "/>
<path style=" stroke:none;fill-rule:nonzero;fill:rgb(13.699341%,12.199402%,12.5%);fill-opacity:1;" d="M 34.972656 73.78125 L 35.382813 73.828125 L 35.015625 76.753906 L 34.605469 76.703125 L 34.972656 73.78125 "/>
<path style=" stroke:none;fill-rule:nonzero;fill:rgb(13.699341%,12.199402%,12.5%);fill-opacity:1;" d="M 38.265625 74.066406 L 38.242188 74.414063 L 37.234375 74.347656 L 37.046875 76.933594 L 36.636719 76.90625 L 36.824219 74.316406 L 35.8125 74.25 L 35.839844 73.898438 L 38.265625 74.066406 "/>
<g clip-path="url(#clip3)" clip-rule="nonzero">
<path style=" stroke:none;fill-rule:evenodd;fill:rgb(13.699341%,12.199402%,12.5%);fill-opacity:1;" d="M 39.894531 75.808594 L 39.460938 74.5 L 38.953125 75.792969 Z M 39.257813 74.058594 L 39.714844 74.066406 L 40.753906 77.03125 L 40.308594 77.023438 L 40.019531 76.136719 L 38.832031 76.113281 L 38.492188 76.992188 L 38.074219 76.984375 L 39.257813 74.058594 "/>
</g>
<path style=" stroke:none;fill-rule:nonzero;fill:rgb(13.699341%,12.199402%,12.5%);fill-opacity:1;" d="M 41.164063 74.03125 L 43.34375 73.878906 L 43.371094 74.238281 L 41.585938 74.363281 L 41.648438 75.253906 L 43.300781 75.140625 L 43.324219 75.480469 L 41.671875 75.59375 L 41.742188 76.589844 L 43.558594 76.464844 L 43.585938 76.816406 L 41.371094 76.96875 L 41.164063 74.03125 "/>
<path style=" stroke:none;fill-rule:nonzero;fill:rgb(13.699341%,12.199402%,12.5%);fill-opacity:1;" d="M 45.152344 73.65625 L 47.296875 73.246094 L 47.367188 73.601563 L 45.609375 73.9375 L 45.78125 74.8125 L 47.410156 74.503906 L 47.476563 74.839844 L 45.847656 75.148438 L 46.042969 76.128906 L 47.832031 75.789063 L 47.902344 76.132813 L 45.722656 76.546875 L 45.152344 73.65625 "/>
<path style=" stroke:none;fill-rule:nonzero;fill:rgb(13.699341%,12.199402%,12.5%);fill-opacity:1;" d="M 49.957031 72.582031 L 50.046875 72.917969 L 49.070313 73.175781 L 49.757813 75.683594 L 49.355469 75.789063 L 48.671875 73.28125 L 47.695313 73.539063 L 47.601563 73.199219 L 49.957031 72.582031 "/>
<path style=" stroke:none;fill-rule:evenodd;fill:rgb(13.699341%,12.199402%,12.5%);fill-opacity:1;" d="M 53.296875 73.25 L 52.394531 72.195313 L 52.417969 73.582031 Z M 52.039063 71.863281 L 52.46875 71.703125 L 54.558594 74.070313 L 54.144531 74.226563 L 53.535156 73.507813 L 52.429688 73.925781 L 52.449219 74.863281 L 52.058594 75.011719 L 52.039063 71.863281 "/>
<path style=" stroke:none;fill-rule:nonzero;fill:rgb(13.699341%,12.199402%,12.5%);fill-opacity:1;" d="M 53.859375 71.160156 L 55.84375 70.253906 L 56 70.582031 L 54.375 71.324219 L 54.761719 72.136719 L 56.261719 71.449219 L 56.40625 71.757813 L 54.90625 72.445313 L 55.335938 73.347656 L 56.988281 72.59375 L 57.140625 72.910156 L 55.128906 73.832031 L 53.859375 71.160156 "/>
<path style=" stroke:none;fill-rule:nonzero;fill:rgb(13.699341%,12.199402%,12.5%);fill-opacity:1;" d="M 58.246094 68.949219 L 58.421875 69.253906 L 57.535156 69.738281 L 58.820313 72.007813 L 58.457031 72.203125 L 57.175781 69.933594 L 56.292969 70.414063 L 56.117188 70.109375 L 58.246094 68.949219 "/>
<path style=" stroke:none;fill-rule:nonzero;fill:rgb(13.699341%,12.199402%,12.5%);fill-opacity:1;" d="M 58.585938 68.71875 L 60.421875 67.550781 L 60.621094 67.851563 L 59.117188 68.8125 L 59.613281 69.5625 L 61.003906 68.675781 L 61.195313 68.960938 L 59.804688 69.847656 L 60.359375 70.683594 L 61.886719 69.710938 L 62.082031 70.003906 L 60.21875 71.191406 L 58.585938 68.71875 "/>
<path style=" stroke:none;fill-rule:evenodd;fill:rgb(13.699341%,12.199402%,12.5%);fill-opacity:1;" d="M 62.742188 67.460938 C 62.890625 67.34375 62.980469 67.222656 63.019531 67.09375 C 63.058594 66.96875 63.015625 66.828125 62.890625 66.675781 C 62.757813 66.515625 62.605469 66.449219 62.433594 66.488281 C 62.34375 66.507813 62.246094 66.5625 62.136719 66.644531 L 61.367188 67.257813 L 62.011719 68.042969 Z M 60.832031 67.246094 L 61.910156 66.386719 C 62.089844 66.246094 62.253906 66.152344 62.410156 66.113281 C 62.710938 66.035156 62.96875 66.128906 63.1875 66.394531 C 63.300781 66.53125 63.363281 66.664063 63.378906 66.796875 C 63.394531 66.929688 63.371094 67.066406 63.308594 67.199219 C 63.429688 67.164063 63.539063 67.160156 63.632813 67.179688 C 63.726563 67.203125 63.832031 67.277344 63.949219 67.40625 L 64.214844 67.707031 C 64.289063 67.789063 64.347656 67.851563 64.394531 67.882813 C 64.472656 67.941406 64.546875 67.960938 64.613281 67.941406 L 64.65625 67.996094 L 64.269531 68.300781 C 64.242188 68.289063 64.210938 68.273438 64.179688 68.246094 C 64.148438 68.21875 64.09375 68.164063 64.015625 68.078125 L 63.679688 67.710938 C 63.550781 67.566406 63.410156 67.511719 63.261719 67.546875 C 63.179688 67.566406 63.074219 67.625 62.945313 67.730469 L 62.222656 68.300781 L 63.035156 69.28125 L 62.71875 69.535156 L 60.832031 67.246094 "/>
<path style=" stroke:none;fill-rule:nonzero;fill:rgb(13.699341%,12.199402%,12.5%);fill-opacity:1;" d="M 63.140625 65.40625 L 63.492188 65.082031 L 66.257813 65.8125 L 64.597656 64.070313 L 64.882813 63.8125 L 66.929688 65.964844 L 66.59375 66.269531 L 63.816406 65.554688 L 65.46875 67.300781 L 65.1875 67.558594 L 63.140625 65.40625 "/>
<path style=" stroke:none;fill-rule:nonzero;fill:rgb(13.699341%,12.199402%,12.5%);fill-opacity:1;" d="M 65.417969 63.25 L 65.703125 62.960938 L 67.863281 65.007813 L 67.578125 65.296875 L 65.417969 63.25 "/>
<path style=" stroke:none;fill-rule:nonzero;fill:rgb(13.699341%,12.199402%,12.5%);fill-opacity:1;" d="M 67.570313 60.863281 L 67.84375 61.085938 L 67.191406 61.847656 L 69.21875 63.515625 L 68.953125 63.824219 L 66.925781 62.15625 L 66.277344 62.917969 L 66.003906 62.691406 L 67.570313 60.863281 "/>
<path style=" stroke:none;fill-rule:evenodd;fill:rgb(13.699341%,12.199402%,12.5%);fill-opacity:1;" d="M 69.984375 60.609375 L 68.652344 60.183594 L 69.421875 61.34375 Z M 68.167969 60.085938 L 68.449219 59.726563 L 71.5 60.644531 L 71.230469 60.992188 L 70.332031 60.699219 L 69.613281 61.632813 L 70.136719 62.417969 L 69.886719 62.742188 L 68.167969 60.085938 "/>
<path style=" stroke:none;fill-rule:nonzero;fill:rgb(13.699341%,12.199402%,12.5%);fill-opacity:1;" d="M 70.3125 57.023438 L 70.613281 57.214844 L 70.0625 58.046875 L 72.28125 59.460938 L 72.054688 59.800781 L 69.839844 58.386719 L 69.285156 59.21875 L 68.988281 59.027344 L 70.3125 57.023438 "/>
<path style=" stroke:none;fill-rule:nonzero;fill:rgb(13.699341%,12.199402%,12.5%);fill-opacity:1;" d="M 70.59375 56.539063 L 70.804688 56.191406 L 73.378906 57.707031 L 73.164063 58.054688 L 70.59375 56.539063 "/>
<path style=" stroke:none;fill-rule:nonzero;fill:rgb(92.89856%,10.998535%,14.099121%);fill-opacity:1;" d="M 11.90625 50.097656 L 51.035156 11.46875 L 28.050781 11.535156 L 11.839844 27.535156 L 11.90625 50.097656 "/>
<path style=" stroke:none;fill-rule:nonzero;fill:rgb(100%,100%,100%);fill-opacity:1;" d="M 11.859375 35.261719 L 11.882813 42.789063 L 43.777344 11.492188 L 36.035156 11.511719 L 11.859375 35.261719 "/>
<path style=" stroke:none;fill-rule:nonzero;fill:rgb(13.699341%,12.199402%,12.5%);fill-opacity:1;" d="M 39.714844 48.285156 C 39.878906 48.203125 39.984375 47.988281 40.136719 47.871094 C 42.136719 46.160156 45.59375 46.425781 47.910156 47.4375 C 49.6875 48.261719 52.121094 48.171875 53.78125 47.242188 L 53.828125 47.242188 C 55.484375 50.914063 57.355469 54.492188 59.050781 58.15625 L 58.832031 58.257813 L 55.710938 58.234375 L 45.921875 58.257813 L 25.722656 58.292969 L 25.582031 58.316406 L 25.582031 58.292969 L 20.390625 58.316406 L 20.390625 58.039063 C 21.429688 55.972656 22.460938 53.757813 23.441406 51.648438 C 24.15625 50.074219 24.9375 48.640625 25.582031 47.023438 C 25.699219 46.828125 25.859375 47.035156 26.003906 47.046875 C 27.628906 47.988281 29.882813 47.746094 31.472656 46.964844 C 32.476563 46.527344 33.589844 46.460938 34.722656 46.390625 C 36.523438 46.539063 38.464844 46.863281 39.714844 48.285156 "/>
<path style=" stroke:none;fill-rule:nonzero;fill:rgb(100%,100%,100%);fill-opacity:1;" d="M 39.636719 48.832031 C 39.679688 48.917969 39.535156 48.984375 39.65625 49.039063 C 39.921875 49.039063 39.800781 48.746094 39.957031 48.625 C 41.84375 46.574219 45.265625 47.066406 47.554688 47.972656 C 49.253906 48.789063 51.242188 48.558594 52.964844 47.972656 L 55.441406 53.039063 C 55.871094 54.054688 56.371094 54.96875 56.75 55.972656 C 54.507813 56.792969 51.765625 56.769531 49.34375 56.289063 C 47.363281 55.789063 45.457031 55.003906 43.234375 55.242188 C 41.921875 55.285156 40.800781 55.875 39.746094 56.660156 C 38.28125 55.539063 36.648438 54.796875 34.648438 54.980469 C 33.382813 55.132813 32.128906 55.472656 30.972656 55.972656 C 28.429688 56.640625 25.398438 56.976563 22.710938 56.179688 C 22.664063 56.171875 22.632813 56.117188 22.574219 56.136719 C 23.898438 53.269531 25.128906 50.457031 26.519531 47.675781 C 26.875 47.765625 27.261719 47.925781 27.640625 48.046875 C 29.425781 48.386719 31.058594 47.972656 32.546875 47.285156 C 33.515625 46.945313 34.660156 46.957031 35.746094 46.980469 C 37.234375 47.121094 38.714844 47.558594 39.636719 48.832031 "/>
<path style=" stroke:none;fill-rule:nonzero;fill:rgb(77.598572%,78.399658%,79.199219%);fill-opacity:1;" d="M 39.308594 38.089844 L 37.949219 38.089844 C 38.125 37.835938 38.433594 37.675781 38.804688 37.738281 C 39 37.785156 39.175781 37.960938 39.308594 38.089844 "/>
<path style=" stroke:none;fill-rule:nonzero;fill:rgb(13.699341%,12.199402%,12.5%);fill-opacity:1;" d="M 29.445313 39.535156 C 30.144531 40.664063 31.996094 39.519531 32.417969 40.910156 C 32.609375 41.109375 32.945313 41.179688 33.175781 41.039063 C 33.367188 40.953125 33.324219 40.75 33.425781 40.636719 C 33.996094 41.023438 34.519531 41.523438 35.175781 41.695313 C 34.871094 42.039063 34.417969 42.296875 34.300781 42.753906 L 42.453125 42.828125 L 42.496094 42.828125 C 42.4375 42.441406 42.042969 42.167969 41.753906 41.867188 C 43.722656 41.109375 45.691406 40.25 47.921875 40.222656 C 48.898438 40.0625 50.109375 40.078125 50.621094 39.148438 C 50.621094 39.003906 50.429688 39.003906 50.296875 39.019531 L 42.773438 38.976563 C 42.597656 38.632813 42.277344 38.246094 41.898438 38.058594 C 41.167969 37.972656 40.425781 37.929688 39.652344 37.945313 C 39.535156 37.671875 39.242188 37.53125 38.996094 37.402344 C 38.441406 37.242188 37.960938 37.488281 37.625 37.886719 C 36.472656 38.230469 34.695313 37.34375 34.097656 38.777344 C 33.410156 39.121094 33.28125 38.1875 32.769531 38.015625 C 31.894531 37.472656 30.640625 37.03125 29.648438 37.601563 C 29.414063 37.773438 29.253906 37.945313 29.125 38.1875 C 28.964844 38.703125 29.226563 39.132813 29.445313 39.535156 Z M 39.171875 38.089844 L 37.949219 38.089844 C 38.105469 37.859375 38.386719 37.714844 38.71875 37.773438 C 38.894531 37.816406 39.054688 37.972656 39.171875 38.089844 Z M 42.324219 39.046875 L 34.449219 38.949219 C 34.460938 38.734375 34.652344 38.546875 34.828125 38.433594 C 36.882813 38.203125 39.1875 38.289063 41.226563 38.359375 C 41.664063 38.433594 42.191406 38.5625 42.324219 39.046875 Z M 36.328125 41.722656 C 37.21875 42.011719 38.3125 41.894531 39.242188 41.96875 C 40.046875 42.054688 41.226563 41.425781 41.652344 42.484375 C 39.390625 42.582031 37.230469 42.46875 35 42.453125 C 35.421875 42.167969 35.800781 41.753906 36.328125 41.722656 Z M 33.5 40.050781 L 34.375 40.007813 L 46.171875 40.078125 L 44.496094 40.464844 C 42.703125 41.238281 40.761719 41.722656 38.675781 41.695313 C 36.765625 41.597656 34.679688 41.554688 33.5 40.050781 Z M 29.851563 37.886719 L 30.246094 37.671875 C 31.542969 37.472656 32.640625 38.160156 33.398438 39.121094 L 36.125 39.191406 L 50.199219 39.292969 C 49.480469 39.976563 48.417969 39.835938 47.46875 39.949219 L 33.25 39.835938 L 33.121094 39.664063 C 32.8125 38.660156 31.75 38.046875 30.726563 37.988281 C 30.378906 37.972656 30.058594 38.101563 29.851563 38.402344 C 29.675781 40.40625 32.128906 39.089844 32.945313 40.25 C 32.988281 40.421875 33.148438 40.664063 32.945313 40.808594 C 32.84375 40.78125 32.710938 40.867188 32.652344 40.738281 C 32.230469 39.464844 30.640625 40.234375 29.824219 39.535156 C 29.664063 39.292969 29.445313 39.089844 29.472656 38.777344 C 29.445313 38.417969 29.621094 38.132813 29.851563 37.886719 Z M 30.550781 39.261719 C 30.320313 39.105469 30.101563 38.90625 30.101563 38.605469 C 30.277344 38.304688 30.683594 38.316406 31.046875 38.332031 C 31.675781 38.476563 32.347656 38.90625 32.625 39.535156 C 31.996094 39.292969 31.210938 39.449219 30.550781 39.261719 "/>
<path style=" stroke:none;fill-rule:nonzero;fill:rgb(68.998718%,75.299072%,78.799438%);fill-opacity:1;" d="M 42.324219 39.046875 L 34.449219 38.949219 C 34.460938 38.734375 34.652344 38.546875 34.828125 38.433594 C 36.882813 38.203125 39.1875 38.289063 41.226563 38.359375 C 41.664063 38.433594 42.191406 38.5625 42.324219 39.046875 "/>
<path style=" stroke:none;fill-rule:nonzero;fill:rgb(61.999512%,67.799377%,70.999146%);fill-opacity:1;" d="M 36.328125 41.722656 C 37.21875 42.011719 38.3125 41.894531 39.242188 41.96875 C 40.046875 42.054688 41.226563 41.425781 41.652344 42.484375 C 39.390625 42.582031 37.230469 42.46875 35 42.453125 C 35.421875 42.167969 35.800781 41.753906 36.328125 41.722656 "/>
<path style=" stroke:none;fill-rule:nonzero;fill:rgb(70.199585%,75.698853%,78.799438%);fill-opacity:1;" d="M 33.5 40.050781 L 46.171875 40.078125 L 44.496094 40.464844 C 42.703125 41.238281 40.761719 41.722656 38.675781 41.695313 C 36.765625 41.597656 34.679688 41.554688 33.5 40.050781 "/>
<path style=" stroke:none;fill-rule:nonzero;fill:rgb(77.598572%,78.399658%,79.199219%);fill-opacity:1;" d="M 29.851563 37.886719 L 30.246094 37.671875 C 31.542969 37.472656 32.640625 38.160156 33.398438 39.121094 L 50.199219 39.292969 C 49.480469 39.976563 48.417969 39.835938 47.46875 39.949219 L 33.25 39.835938 L 33.121094 39.664063 C 32.8125 38.660156 31.75 38.046875 30.726563 37.988281 C 30.378906 37.972656 30.058594 38.101563 29.851563 38.402344 C 29.675781 40.40625 32.128906 39.089844 32.945313 40.25 C 32.988281 40.421875 33.148438 40.664063 32.945313 40.808594 C 32.84375 40.78125 32.710938 40.867188 32.652344 40.738281 C 32.230469 39.464844 30.640625 40.234375 29.824219 39.535156 C 29.664063 39.292969 29.445313 39.089844 29.472656 38.777344 C 29.445313 38.417969 29.621094 38.132813 29.851563 37.886719 "/>
<path style=" stroke:none;fill-rule:nonzero;fill:rgb(92.89856%,10.998535%,14.099121%);fill-opacity:1;" d="M 54.253906 31.535156 C 53.574219 30.628906 52.601563 30.125 51.679688 29.648438 C 50.90625 29.054688 51.222656 27.863281 50.179688 27.535156 C 50.300781 27.847656 50.300781 28.160156 50.179688 28.472656 C 49.542969 29.230469 48.542969 29.902344 48.542969 30.972656 C 48.648438 32.101563 49.96875 32.160156 50.722656 32.652344 C 51.558594 32.964844 52.359375 33.632813 52.695313 34.46875 C 53.117188 35.417969 52.90625 36.636719 52.179688 37.398438 C 51.921875 37.722656 51.542969 37.902344 51.269531 38.183594 C 52.589844 37.902344 54.117188 37.070313 54.664063 35.6875 C 55.179688 34.4375 55.148438 32.609375 54.253906 31.535156 "/>
<path style="fill:none;stroke-width:2.438;stroke-linecap:butt;stroke-linejoin:miter;stroke:rgb(13.699341%,12.199402%,12.5%);stroke-opacity:1;stroke-miterlimit:4;" d="M 542.539063 454.948437 C 535.742188 464.010937 526.015625 469.05 516.796875 473.815625 C 509.0625 479.753125 512.226563 491.667187 501.796875 494.948437 C 503.007813 491.823437 503.007813 488.698437 501.796875 485.573437 C 495.429688 477.995312 485.429688 471.276562 485.429688 460.573437 C 486.484375 449.284375 499.6875 448.698437 507.226563 443.776562 C 515.585938 440.651562 523.59375 433.971875 526.953125 425.6125 C 531.171875 416.120312 529.0625 403.932812 521.796875 396.315625 C 519.21875 393.073437 515.429688 391.276562 512.695313 388.464062 C 525.898438 391.276562 541.171875 399.596875 546.640625 413.425 C 551.796875 425.925 551.484375 444.20625 542.539063 454.948437 Z M 542.539063 454.948437 " transform="matrix(0.1,0,0,-0.1,0,77.03)"/>
<path style=" stroke:none;fill-rule:nonzero;fill:rgb(92.89856%,10.998535%,14.099121%);fill-opacity:1;" d="M 51.238281 34.570313 C 50.117188 33.320313 47.695313 33.292969 47.679688 31.253906 L 47.496094 31.328125 C 46.90625 32.234375 46.34375 33.441406 46.875 34.542969 C 47.617188 36.667969 50.722656 35.777344 50.800781 38.289063 L 50.953125 38.289063 C 51.617188 37.1875 52.058594 35.730469 51.238281 34.570313 "/>
<path style="fill:none;stroke-width:2.438;stroke-linecap:butt;stroke-linejoin:miter;stroke:rgb(13.699341%,12.199402%,12.5%);stroke-opacity:1;stroke-miterlimit:4;" d="M 512.382813 424.596875 C 501.171875 437.096875 476.953125 437.370312 476.796875 457.760937 L 474.960938 457.01875 C 469.0625 447.95625 463.4375 435.885937 468.75 424.870312 C 476.171875 403.620312 507.226563 412.526562 508.007813 387.409375 L 509.53125 387.409375 C 516.171875 398.425 520.585938 412.995312 512.382813 424.596875 Z M 512.382813 424.596875 " transform="matrix(0.1,0,0,-0.1,0,77.03)"/>
</g>
</svg>
