<svg viewBox="0 0 512 512" width="512" height="512" xmlns="http://www.w3.org/2000/svg" role="img" aria-labelledby="title desc">
  <title id="title">Modalidad presencial — trabajo en grupo (UPeU)</title>
  <desc id="desc">Icono ilustrado de personas reunidas en torno a una mesa, con pizarra al fondo, representando actividades presenciales de proyección social.</desc>
  
<style>
  .bg { fill: #F8FAFC; }
  .primary { fill: #1E3A8A; } /* deep indigo (academia) */
  .accent { fill: #F59E0B; }  /* amber (service/social impact) */
  .secondary { fill: #10B981; } /* teal/green (growth/community) */
  .muted { fill: #E5E7EB; }
  .line { stroke: #0F172A; stroke-width: 8; stroke-linecap: round; stroke-linejoin: round; fill: none; }
  .soft { opacity: .08; }
  .shadow { filter: drop-shadow(0 2px 2px rgba(0,0,0,.15)); }
  text { font-family: system-ui, -apple-system, Segoe UI, Roboto, Ubuntu, Cantarell, Noto Sans, Arial, "Apple Color Emoji", "Segoe UI Emoji"; }
</style>

  <rect class="bg" x="0" y="0" width="512" height="512" rx="32" ry="32"/>
  
  <!-- chalkboard -->
  <rect x="96" y="64" width="320" height="120" rx="16" class="muted" />
  <rect x="104" y="72" width="304" height="104" rx="12" class="primary" opacity="0.12" />
  <path d="M120 152 H240" class="line" opacity=".25"/>
  <path d="M120 124 H200" class="line" opacity=".25"/>

  <!-- table -->
  <rect x="86" y="260" width="340" height="48" rx="24" class="accent shadow" />

  <!-- people: center -->
  <circle cx="256" cy="190" r="28" class="primary"/>
  <path d="M224 236 Q256 216 288 236 V272 H224 Z" class="secondary" />
  <!-- people: left -->
  <circle cx="168" cy="210" r="22" class="primary"/>
  <path d="M144 244 Q168 230 192 244 V270 H144 Z" class="secondary" />
  <!-- people: right -->
  <circle cx="344" cy="210" r="22" class="primary"/>
  <path d="M320 244 Q344 230 368 244 V270 H320 Z" class="secondary" />

  <!-- chairs -->
  <rect x="120" y="308" width="64" height="28" rx="10" class="muted"/>
  <rect x="328" y="308" width="64" height="28" rx="10" class="muted"/>
  <rect x="224" y="308" width="64" height="28" rx="10" class="muted"/>

  <!-- subtle service motif: heart -->
  <path d="M256 370 c-20 -22 -56 -10 -56 18 0 32 56 62 56 62s56 -30 56 -62c0 -28 -36 -40 -56 -18z" class="accent" opacity=".6"/>

</svg>
